PathFileType	4	(X/Y/Z)	/Users/itak/Documents/Research/Walk-IL/dataset/trc/00427_00167.trc
DataRate	CameraRate	NumFrames	NumMarkers	Units	OrigDataRate	OrigDataStartFrame	OrigNumFrames
100.000000	100.000000	4	53	mm	100.000000	325	651
Frame#	Time	RPSI			LPSI			L3			STRN			T10			C7			CLAV			RBAK			LBAK			LSHO			LUPA			LAEL			LAOL			LWTS			LWPS			LFRA			LIFD			LHPS			LHTS			RSHO			RUPA			RAEL			RAOL			RWTS			RWPS			RFRA			RIFD			RHTS			RHPS			RBHD			LFHD			RFHD			LBHD			LHIP			RHIP			RASI			LASI			LKNE			LTHI			LANK			LTIP			LTOE			LMT1			LMT5			LHEE			RKNE			RTHI			RANK			RTIP			RTOE			RMT1			RMT5			RHEE			
		X1	Y1	Z1	X2	Y2	Z2	X3	Y3	Z3	X4	Y4	Z4	X5	Y5	Z5	X6	Y6	Z6	X7	Y7	Z7	X8	Y8	Z8	X9	Y9	Z9	X10	Y10	Z10	X11	Y11	Z11	X12	Y12	Z12	X13	Y13	Z13	X14	Y14	Z14	X15	Y15	Z15	X16	Y16	Z16	X17	Y17	Z17	X18	Y18	Z18	X19	Y19	Z19	X20	Y20	Z20	X21	Y21	Z21	X22	Y22	Z22	X23	Y23	Z23	X24	Y24	Z24	X25	Y25	Z25	X26	Y26	Z26	X27	Y27	Z27	X28	Y28	Z28	X29	Y29	Z29	X30	Y30	Z30	X31	Y31	Z31	X32	Y32	Z32	X33	Y33	Z33	X34	Y34	Z34	X35	Y35	Z35	X36	Y36	Z36	X37	Y37	Z37	X38	Y38	Z38	X39	Y39	Z39	X40	Y40	Z40	X41	Y41	Z41	X42	Y42	Z42	X43	Y43	Z43	X44	Y44	Z44	X45	Y45	Z45	X46	Y46	Z46	X47	Y47	Z47	X48	Y48	Z48	X49	Y49	Z49	X50	Y50	Z50	X51	Y51	Z51	X52	Y52	Z52	X53	Y53	Z53	

326	3.25	-71.91683197021484	951.19482421875	218.7908935546875	19.23146057128906	958.7333984375	109.0854263305664	-24.22397422790527	1056.995239257812	170.463623046875	192.8141479492188	1245.82373046875	330.4903564453125	-28.86796379089355	1181.233276367188	149.3433532714844	26.04906845092773	1450.625732421875	190.1626434326172	170.296630859375	1359.606567382812	301.5047912597656	-88.60321044921875	1337.074096679688	227.9391021728516	70.76313781738281	1396.282958984375	93.68716430664062	200.2833099365234	1408.040283203125	108.8453826904297	277.9202880859375	1292.45166015625	44.28896331787109	354.7535400390625	1087.1083984375	57.266845703125	258.8180847167969	1053.832763671875	37.39229202270508	407.1863098144531	890.4898681640625	150.8545227050781	423.1397094726562	878.4833374023438	79.66439056396484	390.0022888183594	1004.456237792969	69.29578399658203	442.3955078125	723.9951782226562	146.2691345214844	440.9530639648438	800.0751342773438	83.76853942871094	440.1433715820312	804.3729248046875	154.5493927001953	-22.10331535339355	1423.484985351562	363.7572021484375	-87.3291015625	1368.166625976562	414.2764587402344	-144.2708587646484	1082.563232421875	462.5700988769531	-164.5802001953125	1066.978881835938	398.8502197265625	-36.97720718383789	879.4511108398438	483.6310424804688	-125.1004638671875	865.02490234375	493.0449829101562	-147.8467864990234	1024.153930664062	472.7247619628906	-44.17005157470703	719.921630859375	491.8452758789062	-33.97443008422852	779.3639526367188	503.7091369628906	-110.4660263061523	777.91162109375	502.5963745117188	53.45193862915039	1646.110717773438	305.8096923828125	254.9349517822266	1647.440795898438	258.5615539550781	178.2829132080078	1657.3173828125	364.2115173339844	145.4869537353516	1638.252075195312	152.3503265380859	199.0955200195312	855.6671142578125	106.647834777832	-60.61474227905273	857.9554443359375	412.2726135253906	54.93499755859375	906.976806640625	415.245361328125	227.0925750732422	896.1812133789062	227.6297302246094	168.7704010009766	431.0953369140625	168.4424896240234	204.7886047363281	585.75048828125	155.0332946777344	76.26773834228516	28.1800479888916	140.9766387939453	151.2673492431641	273.8654479980469	161.6452331542969	182.2672424316406	47.98691558837891	347.6617736816406	111.9809112548828	55.68085861206055	314.5877075195312	191.8017120361328	37.71324157714844	237.8430328369141	3.70352840423584	30.93045234680176	136.7949981689453	56.11949157714844	493.6961059570312	509.6898803710938	-6.377956390380859	742.3719482421875	481.0536804199219	-85.49214172363281	115.9033508300781	346.6895141601562	9.900286674499512	355.1158447265625	475.8192138671875	101.8684463500977	47.51072311401367	430.6480407714844	79.13915252685547	75.47325897216797	366.4552612304688	-2.846691846847534	58.08170700073242	430.8908386230469	-105.0170822143555	145.5503692626953	273.0543212890625	
327	3.26	-66.24037933349609	950.6077880859375	223.9936828613281	24.36400985717773	958.37255859375	113.8817367553711	-18.29445266723633	1056.185180664062	175.0335693359375	198.6468505859375	1245.5322265625	334.3436279296875	-23.03793907165527	1180.451538085938	153.4999847412109	31.49644660949707	1449.963256835938	194.0041809082031	175.8106689453125	1359.264404296875	305.4362182617188	-82.98326110839844	1336.192138671875	231.7497863769531	76.41354370117188	1395.636962890625	97.54461669921875	205.6918334960938	1407.968505859375	112.8290939331055	284.5137939453125	1293.093872070312	48.73141479492188	365.0546264648438	1089.373657226562	63.35805130004883	269.7254333496094	1054.00341796875	44.14297485351562	422.00146484375	895.7636108398438	160.2440795898438	437.6942138671875	882.50341796875	89.21958160400391	402.011474609375	1007.665405273438	76.66439056396484	460.7535400390625	730.029296875	159.0813140869141	457.2162475585938	804.6238403320312	94.93392181396484	456.8457946777344	810.5136108398438	165.5443572998047	-16.75442886352539	1422.804321289062	367.4978332519531	-81.81766510009766	1367.310913085938	418.1030578613281	-136.8832855224609	1081.524047851562	467.4810791015625	-157.0954132080078	1065.136962890625	403.870361328125	-25.95612907409668	880.4122314453125	489.7939147949219	-113.6709289550781	864.65380859375	499.7563781738281	-139.4744262695312	1023.098876953125	478.0766296386719	-30.16780662536621	720.96728515625	499.6383972167969	-21.01364517211914	780.7046508789062	510.8638610839844	-97.45436859130859	777.8956298828125	510.1378784179688	59.31472015380859	1645.524291992188	310.5404357910156	260.9290466308594	1646.36669921875	263.8137512207031	184.0533905029297	1655.95361328125	369.3729553222656	151.7646942138672	1638.20849609375	157.2410888671875	203.9041137695312	855.3031005859375	110.2994232177734	-53.69651031494141	857.7186279296875	417.5108947753906	61.84250259399414	906.9304809570312	419.7279968261719	232.7727203369141	895.5344848632812	231.045654296875	170.3063507080078	430.7798767089844	169.4027404785156	207.5640563964844	585.3059692382812	157.0953979492188	76.32029724121094	28.3784008026123	141.2372436523438	152.1129150390625	273.7247924804688	162.2467803955078	182.1500854492188	47.01922607421875	347.9171142578125	112.0426712036133	55.08688354492188	314.7987670898438	192.0529937744141	37.61383056640625	237.8572387695312	3.619965791702271	31.29092788696289	137.0164489746094	67.69336700439453	494.0356750488281	514.8312377929688	2.267428398132324	742.4806518554688	486.4486694335938	-63.61928558349609	107.7221374511719	363.8492431640625	24.79947471618652	353.5228576660156	484.9530639648438	126.257194519043	48.57102203369141	449.519287109375	102.3084259033203	73.44396209716797	384.3992614746094	21.17815971374512	55.65802001953125	449.7038269042969	-84.39734649658203	134.1056823730469	289.2672119140625	
328	3.27	-60.5569953918457	949.9468994140625	229.2341613769531	29.56894493103027	957.953125	118.7214279174805	-12.2959623336792	1055.289428710938	179.6888885498047	204.5003509521484	1245.126342773438	338.2938842773438	-17.19790458679199	1179.591064453125	157.7541198730469	36.94582748413086	1449.215087890625	197.9870147705078	181.3644409179688	1358.810791015625	309.44970703125	-77.35422515869141	1335.2216796875	235.7181701660156	82.01816558837891	1394.920532226562	101.5324554443359	211.0733184814453	1407.796508789062	116.8852996826172	290.9537353515625	1293.615844726562	53.12123870849609	374.9980773925781	1091.520141601562	69.2783203125	280.2387390136719	1054.114379882812	50.82773590087891	436.333740234375	901.1908569335938	169.5821533203125	451.7586975097656	886.5487060546875	98.77265167236328	413.6112365722656	1010.80322265625	83.90422058105469	478.6214294433594	736.3736572265625	172.1015319824219	472.9998168945312	809.2745971679688	106.2065811157227	473.0767211914062	816.9059448242188	176.5997467041016	-11.35695171356201	1422.02197265625	371.3787841796875	-76.24117279052734	1366.359130859375	422.0838623046875	-129.3677520751953	1080.41943359375	472.5829772949219	-149.6240081787109	1063.283935546875	409.1318054199219	-14.9984302520752	881.1776733398438	495.6670837402344	-102.2122573852539	864.30810546875	506.6040649414062	-130.9827880859375	1022.007995605469	483.6104125976562	-16.56165885925293	721.8863525390625	507.0029907226562	-8.199465751647949	781.853271484375	517.5950927734375	-84.55949401855469	777.9099731445312	517.671630859375	65.15077209472656	1644.843017578125	315.342041015625	266.8744201660156	1645.241943359375	269.0923156738281	189.8150787353516	1654.555786132812	374.5565185546875	157.9703826904297	1638.047485351562	162.1988830566406	208.76220703125	854.87744140625	114.0354461669922	-46.74212265014648	857.3878173828125	422.7885131835938	68.69282531738281	906.7325439453125	424.2091674804688	238.4727325439453	894.7974243164062	234.5186614990234	171.8222045898438	430.4623413085938	170.4012451171875	210.3518829345703	584.8095092773438	159.2182769775391	76.39752960205078	28.62850570678711	141.5412750244141	152.9466094970703	273.6021423339844	162.9029235839844	182.0631866455078	46.03038787841797	348.2427368164062	112.0681838989258	54.43833923339844	315.046875	192.2837982177734	37.53164291381836	237.8695678710938	3.516788721084595	31.66824150085449	137.2943420410156	79.03189849853516	494.2284545898438	519.7593994140625	10.72743320465088	742.4198608398438	491.6985168457031	-41.45799255371094	99.90333557128906	381.2288818359375	39.59592437744141	351.9505310058594	494.0161743164062	150.5141448974609	50.05573654174805	468.4502563476562	125.5407028198242	71.79807281494141	402.495361328125	45.19819259643555	53.70623779296875	468.6211853027344	-63.30965805053711	122.9396591186523	305.7814331054688	
329	3.28	-54.84885025024414	949.2040405273438	234.5007476806641	34.85043334960938	957.4650268554688	123.6043395996094	-6.24867057800293	1054.319946289062	184.4186553955078	210.3749389648438	1244.599731445312	342.346923828125	-11.34373569488525	1178.655151367188	162.1138458251953	42.404052734375	1448.384521484375	202.1180877685547	186.9586486816406	1358.243774414062	313.5580139160156	-71.71212005615234	1334.166870117188	239.8523559570312	87.58713531494141	1394.134765625	105.65869140625	216.439453125	1407.52099609375	121.0325546264648	297.2568664550781	1294.015502929688	57.47757339477539	384.5777893066406	1093.524536132812	75.038818359375	290.3673706054688	1054.155639648438	57.4266471862793	450.1433410644531	906.7254638671875	178.8521270751953	465.3248901367188	890.6026000976562	108.3186950683594	424.7914428710938	1013.842712402344	91.02327728271484	495.9617614746094	743.0037231445312	185.2676086425781	488.27978515625	814.0142211914062	117.5510940551758	488.796875	823.5140991210938	187.6831207275391	-5.905145645141602	1421.145263671875	375.4081726074219	-70.59649658203125	1365.31640625	426.22607421875	-121.7421798706055	1079.258544921875	477.8688049316406	-142.1825561523438	1061.43359375	414.6256408691406	-4.17305326461792	881.7219848632812	501.2495727539062	-90.79493713378906	863.9861450195312	513.555908203125	-122.3997344970703	1020.889221191406	489.3082580566406	-3.455028533935547	722.635009765625	513.9976196289062	4.379229068756104	782.7772827148438	523.9440307617188	-71.87352752685547	777.9501953125	525.2001342773438	70.960693359375	1644.065185546875	320.2175903320312	272.7721862792969	1644.075805664062	274.4105529785156	195.5605773925781	1653.124389648438	379.771240234375	164.104248046875	1637.769409179688	167.2321624755859	213.6836395263672	854.3814697265625	117.829345703125	-39.70790100097656	856.9515380859375	428.122802734375	75.49111175537109	906.3848266601562	428.6919860839844	244.2139739990234	893.9613647460938	238.0512237548828	173.3048858642578	430.1373596191406	171.4181976318359	213.1507110595703	584.2587890625	161.3805236816406	76.48200988769531	28.92020416259766	141.8673400878906	153.7667999267578	273.4981384277344	163.5891723632812	182.0213623046875	45.0731201171875	348.6179809570312	112.0737152099609	53.78393173217773	315.3200988769531	192.4825592041016	37.45746231079102	237.8751983642578	3.403620719909668	32.05554962158203	137.6136627197266	90.12638092041016	494.2497863769531	524.5021362304688	18.98012351989746	742.17578125	496.7931518554688	-19.03720664978027	92.49406433105469	398.7678527832031	54.29383087158203	350.3824768066406	503.0056457519531	174.6238555908203	51.98176193237305	487.3897094726562	148.8161163330078	70.57459259033203	420.6927185058594	69.19121551513672	52.23737716674805	487.5719604492188	-41.76151275634766	112.1240234375	322.539306640625	
